<mxfile host="app.diagrams.net" modified="2024-04-23T11:46:46.049Z" agent="Mozilla/5.0 (Windows NT 10.0; Win64; x64) AppleWebKit/537.36 (KHTML, like Gecko) Chrome/106.0.0.0 Safari/537.36" etag="PuPTH0Hmb0WZFF8nCAOI" version="24.2.8" type="github">
  <diagram id="prtHgNgQTEPvFCAcTncT" name="分层架构-(平替比价狗)">
    <mxGraphModel dx="1434" dy="884" grid="1" gridSize="10" guides="1" tooltips="1" connect="1" arrows="1" fold="1" page="1" pageScale="1" pageWidth="827" pageHeight="1169" math="0" shadow="0">
      <root>
        <mxCell id="0" />
        <mxCell id="1" parent="0" />
        <mxCell id="bg2LD1bMk67kX1BQn_oh-2" value="" style="rounded=1;whiteSpace=wrap;html=1;fillColor=#fff2cc;strokeColor=none;" vertex="1" parent="1">
          <mxGeometry x="530" y="220" width="140" height="390" as="geometry" />
        </mxCell>
        <mxCell id="bg2LD1bMk67kX1BQn_oh-3" value="&lt;b&gt;中间件层&lt;/b&gt;" style="text;html=1;align=center;verticalAlign=middle;whiteSpace=wrap;rounded=0;fillColor=none;strokeColor=none;fontSize=13;" vertex="1" parent="1">
          <mxGeometry x="570" y="220" width="60" height="30" as="geometry" />
        </mxCell>
        <mxCell id="bg2LD1bMk67kX1BQn_oh-4" value="配置中心" style="rounded=0;whiteSpace=wrap;html=1;fillColor=#FFD966;strokeColor=none;" vertex="1" parent="1">
          <mxGeometry x="540" y="250" width="120" height="30" as="geometry" />
        </mxCell>
        <mxCell id="bg2LD1bMk67kX1BQn_oh-5" value="欧拉配置" style="rounded=0;whiteSpace=wrap;html=1;fillColor=#FFD966;strokeColor=none;" vertex="1" parent="1">
          <mxGeometry x="540" y="300" width="120" height="30" as="geometry" />
        </mxCell>
        <mxCell id="bg2LD1bMk67kX1BQn_oh-6" value="BOSS配置" style="rounded=0;whiteSpace=wrap;html=1;fillColor=#FFD966;strokeColor=none;" vertex="1" parent="1">
          <mxGeometry x="540" y="350" width="120" height="30" as="geometry" />
        </mxCell>
        <mxCell id="bg2LD1bMk67kX1BQn_oh-7" value="Prometheus+Grafana" style="rounded=0;whiteSpace=wrap;html=1;fillColor=#FFD966;strokeColor=none;" vertex="1" parent="1">
          <mxGeometry x="540" y="400" width="120" height="30" as="geometry" />
        </mxCell>
        <mxCell id="bg2LD1bMk67kX1BQn_oh-8" value="日志告警平台" style="rounded=0;whiteSpace=wrap;html=1;fillColor=#FFD966;strokeColor=none;" vertex="1" parent="1">
          <mxGeometry x="540" y="450" width="120" height="30" as="geometry" />
        </mxCell>
        <mxCell id="bg2LD1bMk67kX1BQn_oh-9" value="调用链告警" style="rounded=0;whiteSpace=wrap;html=1;fillColor=#FFD966;strokeColor=none;" vertex="1" parent="1">
          <mxGeometry x="540" y="500" width="120" height="30" as="geometry" />
        </mxCell>
        <mxCell id="bg2LD1bMk67kX1BQn_oh-10" value="Service-Keeper" style="rounded=0;whiteSpace=wrap;html=1;fillColor=#FFD966;strokeColor=none;" vertex="1" parent="1">
          <mxGeometry x="540" y="554.5" width="120" height="30" as="geometry" />
        </mxCell>
        <mxCell id="bg2LD1bMk67kX1BQn_oh-11" value="" style="rounded=1;whiteSpace=wrap;html=1;fillColor=#b0e3e6;strokeColor=none;" vertex="1" parent="1">
          <mxGeometry x="140" y="330" width="370" height="130" as="geometry" />
        </mxCell>
        <mxCell id="bg2LD1bMk67kX1BQn_oh-15" value="" style="rounded=1;whiteSpace=wrap;html=1;fillColor=#d5e8d4;strokeColor=none;" vertex="1" parent="1">
          <mxGeometry x="140" y="225" width="370" height="80" as="geometry" />
        </mxCell>
        <mxCell id="bg2LD1bMk67kX1BQn_oh-16" value="口令换链" style="rounded=0;whiteSpace=wrap;html=1;fillColor=#60a917;fontColor=#ffffff;strokeColor=none;" vertex="1" parent="1">
          <mxGeometry x="180" y="250" width="100" height="35" as="geometry" />
        </mxCell>
        <mxCell id="bg2LD1bMk67kX1BQn_oh-17" value="口令规则" style="rounded=0;whiteSpace=wrap;html=1;fillColor=#f5f5f5;fontColor=#333333;strokeColor=none;" vertex="1" parent="1">
          <mxGeometry x="370" y="250" width="100" height="35" as="geometry" />
        </mxCell>
        <mxCell id="bg2LD1bMk67kX1BQn_oh-18" value="&lt;b&gt;网关层&lt;/b&gt;" style="text;html=1;align=center;verticalAlign=middle;whiteSpace=wrap;rounded=0;fillColor=none;strokeColor=none;fontSize=13;" vertex="1" parent="1">
          <mxGeometry x="295" y="225" width="60" height="30" as="geometry" />
        </mxCell>
        <mxCell id="bg2LD1bMk67kX1BQn_oh-19" value="口令供应商" style="rounded=0;whiteSpace=wrap;html=1;fillColor=#cce5ff;strokeColor=none;" vertex="1" parent="1">
          <mxGeometry x="170" y="370" width="90" height="30" as="geometry" />
        </mxCell>
        <mxCell id="bg2LD1bMk67kX1BQn_oh-20" value="口令竞价" style="rounded=0;whiteSpace=wrap;html=1;fillColor=#cce5ff;strokeColor=none;" vertex="1" parent="1">
          <mxGeometry x="170" y="420" width="90" height="30" as="geometry" />
        </mxCell>
        <mxCell id="bg2LD1bMk67kX1BQn_oh-21" value="口令分成" style="rounded=0;whiteSpace=wrap;html=1;fillColor=#cce5ff;strokeColor=none;" vertex="1" parent="1">
          <mxGeometry x="280" y="370" width="90" height="30" as="geometry" />
        </mxCell>
        <mxCell id="bg2LD1bMk67kX1BQn_oh-22" value="达人口令处理" style="rounded=0;whiteSpace=wrap;html=1;fillColor=#cce5ff;strokeColor=none;" vertex="1" parent="1">
          <mxGeometry x="280" y="420" width="90" height="30" as="geometry" />
        </mxCell>
        <mxCell id="bg2LD1bMk67kX1BQn_oh-23" value="&lt;b&gt;业务层&lt;/b&gt;" style="text;html=1;align=center;verticalAlign=middle;whiteSpace=wrap;rounded=0;fillColor=none;strokeColor=none;fontSize=13;" vertex="1" parent="1">
          <mxGeometry x="295" y="330" width="60" height="30" as="geometry" />
        </mxCell>
        <mxCell id="bg2LD1bMk67kX1BQn_oh-24" value="" style="rounded=1;whiteSpace=wrap;html=1;fillColor=#60a917;strokeColor=none;fontColor=#ffffff;" vertex="1" parent="1">
          <mxGeometry x="140" y="480" width="370" height="130" as="geometry" />
        </mxCell>
        <mxCell id="bg2LD1bMk67kX1BQn_oh-25" value="供应商管理" style="rounded=0;whiteSpace=wrap;html=1;fillColor=#008a00;strokeColor=none;fontColor=#ffffff;" vertex="1" parent="1">
          <mxGeometry x="162" y="540" width="90" height="35.5" as="geometry" />
        </mxCell>
        <mxCell id="bg2LD1bMk67kX1BQn_oh-29" value="管理层" style="text;html=1;align=center;verticalAlign=middle;whiteSpace=wrap;rounded=0;fillColor=none;strokeColor=none;fontSize=13;" vertex="1" parent="1">
          <mxGeometry x="295" y="480" width="60" height="30" as="geometry" />
        </mxCell>
        <mxCell id="bg2LD1bMk67kX1BQn_oh-31" value="规则服务" style="rounded=0;whiteSpace=wrap;html=1;fillColor=#F5F5F5;strokeColor=none;" vertex="1" parent="1">
          <mxGeometry x="385" y="370" width="90" height="30" as="geometry" />
        </mxCell>
        <mxCell id="bg2LD1bMk67kX1BQn_oh-32" value="竞价管理" style="rounded=0;whiteSpace=wrap;html=1;fillColor=#008a00;strokeColor=none;fontColor=#ffffff;" vertex="1" parent="1">
          <mxGeometry x="280" y="540" width="90" height="35.5" as="geometry" />
        </mxCell>
        <mxCell id="bg2LD1bMk67kX1BQn_oh-33" value="口令管理" style="rounded=0;whiteSpace=wrap;html=1;fillColor=#008a00;strokeColor=none;fontColor=#ffffff;" vertex="1" parent="1">
          <mxGeometry x="405.5" y="537.75" width="90" height="40" as="geometry" />
        </mxCell>
      </root>
    </mxGraphModel>
  </diagram>
</mxfile>
